<?xml version="1.0" encoding="UTF-8" standalone="no"?>
<svg xmlns:rdf="http://www.w3.org/1999/02/22-rdf-syntax-ns#" xmlns="http://www.w3.org/2000/svg" version="1.1" xml:space="preserve" height="128" width="128" enable-background="new 0 0 595.275 311.111" y="0px" x="0px" xmlns:cc="http://creativecommons.org/ns#" xmlns:dc="http://purl.org/dc/elements/1.1/" viewBox="0 0 128 127.99999"><rect rx="20" ry="20" height="128" width="128" y="-.0000015" x="0" fill="#1d2d44"/><path fill="#fff" d="m29.714 16.001c-7.5977 0-13.714 6.1165-13.714 13.714v68.571c0 7.5977 6.1166 13.714 13.714 13.714h68.571c7.5977 0 13.714-6.1165 13.714-13.714v-57.322l-3.1063 3.109-18.11-18.109 9.9669-9.964h-71.037zm54.213 16.821 18.113 18.109-28.505 28.498-30.106 12 12-30.106 28.498-28.501zm-25.392 31.501-9.1063 15.106 6 6 15.106-9.1062-12-12z"/></svg>
