<svg enable-background="new 0 0 595.275 311.111" height="128" viewBox="0 0 128 128" width="128" xmlns="http://www.w3.org/2000/svg"><path d="m20 0c-11.0799889 0-20 8.9200111-20 20v88c0 11.07999 8.9200111 20 20 20h88c11.07999 0 20-8.92001 20-20v-88c0-11.0799889-8.92001-20-20-20zm76.460938 15c1.416468 0 2.832836.541819 3.916012 1.625l12.99805 12.998047c2.16637 2.166364 2.16637 5.665667 0 7.832031l-10.16406 10.166016-20.832034-20.832032 10.166016-10.164062c1.083183-1.083181 2.499547-1.625 3.916016-1.625zm-20.025391 17.734375 20.830078 20.830078-61.435547 61.435547h-20.830078v-20.830078z"/><path d="m108.40678 61.762712h24v24h-24z" fill="none"/></svg>