<svg width="16" height="16" enable-background="new 0 0 595.275 311.111" version="1.1" viewBox="0 0 16 16" xml:space="preserve" xmlns="http://www.w3.org/2000/svg"><path d="m2.5 0c-1.385 0-2.5 1.115-2.5 2.5v11c0 1.385 1.115 2.5 2.5 2.5h11c1.385 0 2.5-1.115 2.5-2.5v-11c0-1.385-1.115-2.5-2.5-2.5h-11zm9.7422 1.7578c0.51185 0 1.0235 0.19346 1.4141 0.58398 0.78105 0.78105 0.78105 2.049 0 2.8301l-2.8281-2.8301c0.3905-0.39051 0.90221-0.58398 1.4141-0.58398zm-2.1211 1.291 2.8281 2.8301-6.0098 6.0098-2.8281-2.8281 6.0098-6.0117zm-6.7188 6.7188 2.8301 2.8301-3.8906 1.0605 1.0605-3.8906z"/></svg>
