<?xml version="1.0" encoding="UTF-8" standalone="no"?>
<svg xmlns:rdf="http://www.w3.org/1999/02/22-rdf-syntax-ns#" xmlns="http://www.w3.org/2000/svg" version="1.1" xml:space="preserve" height="16" width="16" enable-background="new 0 0 595.275 311.111" y="0px" x="0px" xmlns:cc="http://creativecommons.org/ns#" xmlns:dc="http://purl.org/dc/elements/1.1/" viewBox="0 0 16 15.999999"><path d="m2.5-0.000002c-1.385 0-2.5 1.115-2.5 2.5v11c0 1.385 1.115 2.5 2.5 2.5h11c1.385 0 2.5-1.115 2.5-2.5v-11c0-1.385-1.115-2.5-2.5-2.5h-11zm1.2139 2h8.8799l-1.2461 1.2451 2.2637 2.2637 0.388-0.3887v7.166c0 0.94971-0.76415 1.7139-1.7139 1.7139h-8.5723c-0.9495 0-1.7137-0.764-1.7137-1.714v-8.5712c0-0.9497 0.7642-1.7148 1.7139-1.7148zm6.7773 2.1025-3.5625 3.5625-1.5 3.7637 3.7627-1.5 3.5635-3.5625-2.2637-2.2637zm-3.1748 3.9375 1.5 1.5-1.8877 1.1387-0.75-0.75 1.1377-1.8887z"/></svg>
