<svg xmlns="http://www.w3.org/2000/svg" height="16" width="16" version="1"><path d="M1.457 1.997c-.25 0-.46.21-.46.46v11.08c0 .26.202.46.46.46h13.08c.258 0 .46-.2.46-.46V4.46c0-.25-.21-.463-.46-.463h-6.54l-2-2z" fill-rule="evenodd" /><path style="fill:#ffffff;fill-rule:evenodd;stroke-width:0.84413958" d="m 2.4220964,2.9363347 c -0.2142587,0 -0.4237777,0.1169727 -0.4231396,0.324831 l 0.028903,9.4140373 c 6.638e-4,0.216175 0.1731212,0.382462 0.3942362,0.382462 h 11.210022 c 0.221116,0 0.394236,-0.166286 0.394236,-0.382462 V 5.128242 c 0,-0.2078594 -0.179977,-0.3849557 -0.394236,-0.3849557 L 7.5405756,4.8009163 5.742203,2.9363343 Z" /></svg>
